<svg width="247" height="183" viewBox="0 0 247 183" fill="none" xmlns="http://www.w3.org/2000/svg">
<g opacity="0.13" filter="url(#filter0_d_58_17)">
<path d="M88.5856 0.646173L207.657 3.70495L242.134 90.6161L157.541 174.468L38.4699 171.41L3.9923 84.4985L88.5856 0.646173Z" fill="url(#paint0_linear_58_17)" shape-rendering="crispEdges"/>
<path d="M4.57884 84.6211L88.7861 1.15149L207.314 4.19631L241.548 90.4935L157.34 173.963L38.8129 170.918L4.57884 84.6211Z" stroke="black" shape-rendering="crispEdges"/>
<path d="M4.57884 84.6211L88.7861 1.15149L207.314 4.19631L241.548 90.4935L157.34 173.963L38.8129 170.918L4.57884 84.6211Z" stroke="black" stroke-opacity="0.2" shape-rendering="crispEdges"/>
<path d="M4.57884 84.6211L88.7861 1.15149L207.314 4.19631L241.548 90.4935L157.34 173.963L38.8129 170.918L4.57884 84.6211Z" stroke="black" stroke-opacity="0.2" shape-rendering="crispEdges"/>
</g>
<defs>
<filter id="filter0_d_58_17" x="-0.0078125" y="0.646118" width="246.142" height="181.822" filterUnits="userSpaceOnUse" color-interpolation-filters="sRGB">
<feFlood flood-opacity="0" result="BackgroundImageFix"/>
<feColorMatrix in="SourceAlpha" type="matrix" values="0 0 0 0 0 0 0 0 0 0 0 0 0 0 0 0 0 0 127 0" result="hardAlpha"/>
<feOffset dy="4"/>
<feGaussianBlur stdDeviation="2"/>
<feComposite in2="hardAlpha" operator="out"/>
<feColorMatrix type="matrix" values="0 0 0 0 0 0 0 0 0 0 0 0 0 0 0 0 0 0 0.25 0"/>
<feBlend mode="normal" in2="BackgroundImageFix" result="effect1_dropShadow_58_17"/>
<feBlend mode="normal" in="SourceGraphic" in2="effect1_dropShadow_58_17" result="shape"/>
</filter>
<linearGradient id="paint0_linear_58_17" x1="25" y1="192.5" x2="242" y2="14" gradientUnits="userSpaceOnUse">
<stop stop-color="#D9D9D9"/>
<stop offset="1" stop-color="#D9D9D9" stop-opacity="0"/>
</linearGradient>
</defs>
</svg>
